<svg width="260" height="206" viewBox="0 0 260 206" fill="none" xmlns="http://www.w3.org/2000/svg">
<path d="M239.72 197.361L234.061 202.965" stroke="#24EF7F" stroke-width="3" stroke-miterlimit="10" stroke-linecap="round" stroke-linejoin="round"/>
<path d="M239.72 202.965L234.061 197.361" stroke="#24EF7F" stroke-width="2" stroke-miterlimit="10" stroke-linecap="round" stroke-linejoin="round"/>
<path d="M9.09119 119.208L1.08922 119.208" stroke="#24EF7F" stroke-width="2" stroke-miterlimit="10" stroke-linecap="round" stroke-linejoin="round"/>
<path d="M5.09119 123.181L5.09119 115.247" stroke="#24EF7F" stroke-width="2" stroke-miterlimit="10" stroke-linecap="round" stroke-linejoin="round"/>
<path d="M171.091 21.9622L163.089 21.9622" stroke="#24EF7F" stroke-width="2" stroke-miterlimit="10" stroke-linecap="round" stroke-linejoin="round"/>
<path d="M167.091 25.9347L167.091 18" stroke="#24EF7F" stroke-width="2" stroke-miterlimit="10" stroke-linecap="round" stroke-linejoin="round"/>
<path d="M243.952 10.633C241.272 10.633 239.089 8.47997 239.089 5.81651C239.089 3.16233 241.263 1 243.952 1C246.632 1 248.815 3.15305 248.815 5.81651C248.806 8.47997 246.632 10.633 243.952 10.633Z" stroke="#24EF7F" stroke-width="2" stroke-miterlimit="10" stroke-linecap="round" stroke-linejoin="round"/>
<path d="M43.7096 205C41.0298 205 38.8466 202.847 38.8466 200.184C38.8466 197.53 41.0204 195.367 43.7096 195.367C46.3894 195.367 48.5726 197.52 48.5726 200.184C48.5633 202.847 46.3894 205 43.7096 205Z" stroke="#24EF7F" stroke-width="2" stroke-miterlimit="10" stroke-linecap="round" stroke-linejoin="round"/>
<path d="M50.0363 3.89749C50.0363 4.8609 50.8249 5.64189 51.7976 5.64189C52.7703 5.64189 53.5588 4.8609 53.5588 3.89749C53.5588 2.93408 52.7703 2.15308 51.7976 2.15308C50.8249 2.15308 50.0363 2.93408 50.0363 3.89749Z" fill="#24EF7F"/>
<path d="M50.0363 16.0713C50.0363 17.0347 50.8249 17.8157 51.7976 17.8157C52.7703 17.8157 53.5588 17.0347 53.5588 16.0713C53.5588 15.1079 52.7703 14.3269 51.7976 14.3269C50.8249 14.3269 50.0363 15.1079 50.0363 16.0713Z" fill="#24EF7F"/>
<path d="M50.0363 28.2564C50.0363 29.2198 50.8249 30.0008 51.7976 30.0008C52.7703 30.0008 53.5588 29.2198 53.5588 28.2564C53.5588 27.293 52.7703 26.512 51.7976 26.512C50.8249 26.512 50.0363 27.293 50.0363 28.2564Z" fill="#24EF7F"/>
<path d="M50.0363 40.4312C50.0363 41.3946 50.8249 42.1756 51.7976 42.1756C52.7703 42.1756 53.5588 41.3946 53.5588 40.4312C53.5588 39.4678 52.7703 38.6868 51.7976 38.6868C50.8249 38.6868 50.0363 39.4678 50.0363 40.4312Z" fill="#24EF7F"/>
<path d="M50.0363 52.6153C50.0363 53.5787 50.8249 54.3597 51.7976 54.3597C52.7703 54.3597 53.5588 53.5787 53.5588 52.6153C53.5588 51.6518 52.7703 50.8708 51.7976 50.8708C50.8249 50.8708 50.0363 51.6518 50.0363 52.6153Z" fill="#24EF7F"/>
<path d="M37.7427 3.89724C37.7427 4.86065 38.5313 5.64165 39.504 5.64165C40.4767 5.64165 41.2653 4.86065 41.2653 3.89724C41.2653 2.93383 40.4767 2.15283 39.504 2.15283C38.5313 2.15283 37.7427 2.93383 37.7427 3.89724Z" fill="#24EF7F"/>
<path d="M37.7427 16.0716C37.7427 17.035 38.5313 17.816 39.504 17.816C40.4767 17.816 41.2653 17.035 41.2653 16.0716C41.2653 15.1081 40.4767 14.3271 39.504 14.3271C38.5313 14.3271 37.7427 15.1081 37.7427 16.0716Z" fill="#24EF7F"/>
<path d="M37.7427 28.2561C37.7427 29.2195 38.5313 30.0005 39.504 30.0005C40.4767 30.0005 41.2653 29.2195 41.2653 28.2561C41.2653 27.2927 40.4767 26.5117 39.504 26.5117C38.5313 26.5117 37.7427 27.2927 37.7427 28.2561Z" fill="#24EF7F"/>
<path d="M37.7427 40.4309C37.7427 41.3943 38.5313 42.1753 39.504 42.1753C40.4767 42.1753 41.2653 41.3943 41.2653 40.4309C41.2653 39.4675 40.4767 38.6865 39.504 38.6865C38.5313 38.6865 37.7427 39.4675 37.7427 40.4309Z" fill="#24EF7F"/>
<path d="M37.7427 52.615C37.7427 53.5784 38.5313 54.3594 39.504 54.3594C40.4767 54.3594 41.2653 53.5784 41.2653 52.615C41.2653 51.6516 40.4767 50.8706 39.504 50.8706C38.5313 50.8706 37.7427 51.6516 37.7427 52.615Z" fill="#24EF7F"/>
<path d="M25.44 3.89724C25.44 4.86065 26.2285 5.64165 27.2013 5.64165C28.174 5.64165 28.9625 4.86065 28.9625 3.89724C28.9625 2.93383 28.174 2.15283 27.2013 2.15283C26.2285 2.15283 25.44 2.93383 25.44 3.89724Z" fill="#24EF7F"/>
<path d="M25.44 16.0716C25.44 17.035 26.2285 17.816 27.2013 17.816C28.174 17.816 28.9625 17.035 28.9625 16.0716C28.9625 15.1081 28.174 14.3271 27.2013 14.3271C26.2285 14.3271 25.44 15.1081 25.44 16.0716Z" fill="#24EF7F"/>
<path d="M25.44 28.2561C25.44 29.2195 26.2285 30.0005 27.2013 30.0005C28.174 30.0005 28.9625 29.2195 28.9625 28.2561C28.9625 27.2927 28.174 26.5117 27.2013 26.5117C26.2285 26.5117 25.44 27.2927 25.44 28.2561Z" fill="#24EF7F"/>
<path d="M25.44 40.4309C25.44 41.3943 26.2285 42.1753 27.2013 42.1753C28.174 42.1753 28.9625 41.3943 28.9625 40.4309C28.9625 39.4675 28.174 38.6865 27.2013 38.6865C26.2285 38.6865 25.44 39.4675 25.44 40.4309Z" fill="#24EF7F"/>
<path d="M25.44 52.615C25.44 53.5784 26.2285 54.3594 27.2013 54.3594C28.174 54.3594 28.9625 53.5784 28.9625 52.615C28.9625 51.6516 28.174 50.8706 27.2013 50.8706C26.2285 50.8706 25.44 51.6516 25.44 52.615Z" fill="#24EF7F"/>
<path d="M13.1467 3.89724C13.1467 4.86065 13.9352 5.64165 14.9079 5.64165C15.8806 5.64165 16.6692 4.86065 16.6692 3.89724C16.6692 2.93383 15.8806 2.15283 14.9079 2.15283C13.9352 2.15283 13.1467 2.93383 13.1467 3.89724Z" fill="#24EF7F"/>
<path d="M13.1467 16.0716C13.1467 17.035 13.9352 17.816 14.9079 17.816C15.8806 17.816 16.6692 17.035 16.6692 16.0716C16.6692 15.1081 15.8806 14.3271 14.9079 14.3271C13.9352 14.3271 13.1467 15.1081 13.1467 16.0716Z" fill="#24EF7F"/>
<path d="M13.1467 28.2561C13.1467 29.2195 13.9352 30.0005 14.9079 30.0005C15.8806 30.0005 16.6692 29.2195 16.6692 28.2561C16.6692 27.2927 15.8806 26.5117 14.9079 26.5117C13.9352 26.5117 13.1467 27.2927 13.1467 28.2561Z" fill="#24EF7F"/>
<path d="M13.1467 40.4309C13.1467 41.3943 13.9352 42.1753 14.9079 42.1753C15.8806 42.1753 16.6692 41.3943 16.6692 40.4309C16.6692 39.4675 15.8806 38.6865 14.9079 38.6865C13.9352 38.6865 13.1467 39.4675 13.1467 40.4309Z" fill="#24EF7F"/>
<path d="M13.1467 52.615C13.1467 53.5784 13.9352 54.3594 14.9079 54.3594C15.8806 54.3594 16.6692 53.5784 16.6692 52.615C16.6692 51.6516 15.8806 50.8706 14.9079 50.8706C13.9352 50.8706 13.1467 51.6516 13.1467 52.615Z" fill="#24EF7F"/>
<path d="M255.566 106.703C255.566 107.667 256.355 108.448 257.328 108.448C258.3 108.448 259.089 107.667 259.089 106.703C259.089 105.74 258.3 104.959 257.328 104.959C256.355 104.959 255.566 105.74 255.566 106.703Z" fill="#24EF7F"/>
<path d="M255.567 118.878C255.567 119.841 256.355 120.622 257.328 120.622C258.301 120.622 259.089 119.841 259.089 118.878C259.089 117.915 258.301 117.134 257.328 117.134C256.355 117.134 255.567 117.915 255.567 118.878Z" fill="#24EF7F"/>
<path d="M255.567 131.062C255.567 132.025 256.355 132.806 257.328 132.806C258.301 132.806 259.089 132.025 259.089 131.062C259.089 130.099 258.301 129.318 257.328 129.318C256.355 129.318 255.567 130.099 255.567 131.062Z" fill="#24EF7F"/>
<path d="M243.264 106.703C243.264 107.666 244.052 108.447 245.025 108.447C245.998 108.447 246.786 107.666 246.786 106.703C246.786 105.74 245.998 104.958 245.025 104.958C244.052 104.958 243.264 105.74 243.264 106.703Z" fill="#24EF7F"/>
<path d="M243.264 118.878C243.264 119.841 244.052 120.622 245.025 120.622C245.998 120.622 246.786 119.841 246.786 118.878C246.786 117.914 245.998 117.133 245.025 117.133C244.052 117.133 243.264 117.914 243.264 118.878Z" fill="#24EF7F"/>
<path d="M243.264 131.062C243.264 132.026 244.052 132.807 245.025 132.807C245.998 132.807 246.786 132.026 246.786 131.062C246.786 130.099 245.998 129.318 245.025 129.318C244.052 129.318 243.264 130.099 243.264 131.062Z" fill="#24EF7F"/>
<path d="M170.339 69.75H87.8391C83.697 69.75 80.3391 73.1079 80.3391 77.25V126C80.3391 130.142 83.697 133.5 87.8391 133.5H170.339C174.481 133.5 177.839 130.142 177.839 126V77.25C177.839 73.1079 174.481 69.75 170.339 69.75Z" stroke="white" stroke-width="6" stroke-linejoin="round"/>
<path d="M129.089 148.5V133.5" stroke="white" stroke-width="6" stroke-linecap="round" stroke-linejoin="round"/>
<path d="M129.089 69.75V62.25" stroke="white" stroke-width="6" stroke-linecap="round" stroke-linejoin="round"/>
<path d="M162.839 159.75L155.339 133.5" stroke="white" stroke-width="6" stroke-linecap="round" stroke-linejoin="round"/>
<path d="M95.3391 159.75L102.839 133.5" stroke="white" stroke-width="6" stroke-linecap="round" stroke-linejoin="round"/>
</svg>
