<svg width="250" height="236" viewBox="0 0 250 236" fill="none" xmlns="http://www.w3.org/2000/svg">
<path d="M80.0891 99H107.089C111.863 99 116.441 100.967 119.817 104.467C123.193 107.968 125.089 112.716 125.089 117.667V183C125.089 179.287 123.667 175.726 121.135 173.101C118.603 170.475 115.17 169 111.589 169H80.0891V99Z" stroke="white" stroke-width="6" stroke-linecap="round" stroke-linejoin="round"/>
<path d="M170.089 99H143.089C138.315 99 133.737 100.967 130.361 104.467C126.986 107.968 125.089 112.716 125.089 117.667V183C125.089 179.287 126.511 175.726 129.043 173.101C131.575 170.475 135.009 169 138.589 169H170.089V99Z" stroke="white" stroke-width="6" stroke-linecap="round" stroke-linejoin="round"/>
<path fill-rule="evenodd" clip-rule="evenodd" d="M7.34214 113.721C7.73319 113.331 7.73404 112.698 7.34405 112.307C6.95405 111.916 6.32089 111.915 5.92984 112.305L3.81799 114.411L1.70613 112.305C1.31508 111.915 0.681916 111.916 0.291921 112.307C-0.0980744 112.698 -0.0972171 113.331 0.293835 113.721L2.40185 115.824L0.293835 117.926C-0.0972173 118.316 -0.0980747 118.949 0.291921 119.34C0.681916 119.731 1.31508 119.732 1.70613 119.342L3.81799 117.236L5.92984 119.342C6.32089 119.732 6.95405 119.731 7.34405 119.34C7.73404 118.949 7.73319 118.316 7.34214 117.926L5.23412 115.824L7.34214 113.721Z" fill="#9871F5"/>
<path d="M243.245 112.675C240.576 112.675 238.402 110.515 238.402 107.843C238.402 105.181 240.567 103.012 243.245 103.012C245.915 103.012 248.089 105.172 248.089 107.843C248.08 110.515 245.915 112.675 243.245 112.675Z" stroke="#9871F5" stroke-width="2" stroke-miterlimit="10" stroke-linecap="round" stroke-linejoin="round"/>
<path d="M44.9328 29.6648C42.2636 29.6648 40.0891 27.5052 40.0891 24.8336C40.0891 22.1714 42.2543 20.0024 44.9328 20.0024C47.602 20.0024 49.7765 22.162 49.7765 24.8336C49.7672 27.5052 47.602 29.6648 44.9328 29.6648Z" stroke="#9871F5" stroke-width="2" stroke-miterlimit="10" stroke-linecap="round" stroke-linejoin="round"/>
<path d="M80.7414 229L75.0891 234.621" stroke="#9871F5" stroke-width="2" stroke-miterlimit="10" stroke-linecap="round" stroke-linejoin="round"/>
<path d="M80.7414 234.621L75.0891 229" stroke="#9871F5" stroke-width="2" stroke-miterlimit="10" stroke-linecap="round" stroke-linejoin="round"/>
<path d="M224.662 223.711C221.704 223.711 219.305 221.319 219.305 218.368C219.305 215.417 221.704 213.025 224.662 213.025C227.621 213.025 230.019 215.417 230.019 218.368C230.019 221.31 227.621 223.711 224.662 223.711Z" stroke="#9871F5" stroke-width="2" stroke-miterlimit="10" stroke-linecap="round" stroke-linejoin="round"/>
<path d="M220.967 222.23L217.178 225.999" stroke="#9871F5" stroke-width="2" stroke-miterlimit="10" stroke-linecap="round" stroke-linejoin="round"/>
<path d="M15.3339 194.772C15.3339 195.738 16.1193 196.522 17.0882 196.522C18.057 196.522 18.8424 195.738 18.8424 194.772C18.8424 193.806 18.057 193.023 17.0882 193.023C16.1193 193.023 15.3339 193.806 15.3339 194.772Z" fill="#9871F5"/>
<path d="M15.3343 206.986C15.3343 207.952 16.1197 208.735 17.0886 208.735C18.0574 208.735 18.8428 207.952 18.8428 206.986C18.8428 206.019 18.0574 205.236 17.0886 205.236C16.1197 205.236 15.3343 206.019 15.3343 206.986Z" fill="#9871F5"/>
<path d="M15.3343 219.205C15.3343 220.171 16.1197 220.955 17.0886 220.955C18.0574 220.955 18.8428 220.171 18.8428 219.205C18.8428 218.239 18.0574 217.456 17.0886 217.456C16.1197 217.456 15.3343 218.239 15.3343 219.205Z" fill="#9871F5"/>
<path d="M3.08041 194.772C3.08041 195.738 3.86582 196.521 4.83467 196.521C5.80352 196.521 6.58893 195.738 6.58893 194.772C6.58893 193.806 5.80352 193.022 4.83467 193.022C3.86582 193.022 3.08041 193.806 3.08041 194.772Z" fill="#9871F5"/>
<path d="M3.08041 206.985C3.08041 207.952 3.86582 208.735 4.83467 208.735C5.80352 208.735 6.58893 207.952 6.58893 206.985C6.58893 206.019 5.80352 205.236 4.83467 205.236C3.86582 205.236 3.08041 206.019 3.08041 206.985Z" fill="#9871F5"/>
<path d="M3.08041 219.205C3.08041 220.171 3.86582 220.955 4.83467 220.955C5.80352 220.955 6.58893 220.171 6.58893 219.205C6.58893 218.239 5.80352 217.456 4.83467 217.456C3.86582 217.456 3.08041 218.239 3.08041 219.205Z" fill="#9871F5"/>
<path d="M212.185 38.4038C212.185 39.3701 212.97 40.1534 213.939 40.1534C214.908 40.1534 215.693 39.3701 215.693 38.4038C215.693 37.4376 214.908 36.6543 213.939 36.6543C212.97 36.6543 212.185 37.4376 212.185 38.4038Z" fill="#9871F5"/>
<path d="M199.931 38.4043C199.931 39.3706 200.716 40.1539 201.685 40.1539C202.654 40.1539 203.44 39.3706 203.44 38.4043C203.44 37.4381 202.654 36.6548 201.685 36.6548C200.716 36.6548 199.931 37.4381 199.931 38.4043Z" fill="#9871F5"/>
<path d="M187.686 38.4043C187.686 39.3706 188.472 40.1539 189.441 40.1539C190.409 40.1539 191.195 39.3706 191.195 38.4043C191.195 37.4381 190.409 36.6548 189.441 36.6548C188.472 36.6548 187.686 37.4381 187.686 38.4043Z" fill="#9871F5"/>
<path d="M175.432 38.4043C175.432 39.3706 176.218 40.1539 177.187 40.1539C178.156 40.1539 178.941 39.3706 178.941 38.4043C178.941 37.4381 178.156 36.6548 177.187 36.6548C176.218 36.6548 175.432 37.4381 175.432 38.4043Z" fill="#9871F5"/>
<path d="M163.188 38.4043C163.188 39.3706 163.973 40.1539 164.942 40.1539C165.911 40.1539 166.697 39.3706 166.697 38.4043C166.697 37.4381 165.911 36.6548 164.942 36.6548C163.973 36.6548 163.188 37.4381 163.188 38.4043Z" fill="#9871F5"/>
<path d="M150.934 38.4043C150.934 39.3706 151.72 40.1539 152.688 40.1539C153.657 40.1539 154.443 39.3706 154.443 38.4043C154.443 37.4381 153.657 36.6548 152.688 36.6548C151.72 36.6548 150.934 37.4381 150.934 38.4043Z" fill="#9871F5"/>
<path d="M138.689 38.4043C138.689 39.3706 139.475 40.1539 140.444 40.1539C141.412 40.1539 142.198 39.3706 142.198 38.4043C142.198 37.4381 141.412 36.6548 140.444 36.6548C139.475 36.6548 138.689 37.4381 138.689 38.4043Z" fill="#9871F5"/>
<path d="M212.185 26.1831C212.185 27.1493 212.97 27.9326 213.939 27.9326C214.908 27.9326 215.693 27.1493 215.693 26.1831C215.693 25.2169 214.908 24.4336 213.939 24.4336C212.97 24.4336 212.185 25.2169 212.185 26.1831Z" fill="#9871F5"/>
<path d="M199.931 26.1831C199.931 27.1493 200.716 27.9326 201.685 27.9326C202.654 27.9326 203.44 27.1493 203.44 26.1831C203.44 25.2169 202.654 24.4336 201.685 24.4336C200.716 24.4336 199.931 25.2169 199.931 26.1831Z" fill="#9871F5"/>
<path d="M187.686 26.1831C187.686 27.1493 188.472 27.9326 189.441 27.9326C190.409 27.9326 191.195 27.1493 191.195 26.1831C191.195 25.2169 190.409 24.4336 189.441 24.4336C188.472 24.4336 187.686 25.2169 187.686 26.1831Z" fill="#9871F5"/>
<path d="M175.432 26.1831C175.432 27.1493 176.218 27.9326 177.187 27.9326C178.156 27.9326 178.941 27.1493 178.941 26.1831C178.941 25.2169 178.156 24.4336 177.187 24.4336C176.218 24.4336 175.432 25.2169 175.432 26.1831Z" fill="#9871F5"/>
<path d="M163.188 26.1831C163.188 27.1493 163.973 27.9326 164.942 27.9326C165.911 27.9326 166.697 27.1493 166.697 26.1831C166.697 25.2169 165.911 24.4336 164.942 24.4336C163.973 24.4336 163.188 25.2169 163.188 26.1831Z" fill="#9871F5"/>
<path d="M150.934 26.1831C150.934 27.1493 151.72 27.9326 152.688 27.9326C153.657 27.9326 154.443 27.1493 154.443 26.1831C154.443 25.2169 153.657 24.4336 152.688 24.4336C151.72 24.4336 150.934 25.2169 150.934 26.1831Z" fill="#9871F5"/>
<path d="M138.689 26.1831C138.689 27.1493 139.475 27.9326 140.444 27.9326C141.412 27.9326 142.198 27.1493 142.198 26.1831C142.198 25.2169 141.412 24.4336 140.444 24.4336C139.475 24.4336 138.689 25.2169 138.689 26.1831Z" fill="#9871F5"/>
<path d="M212.185 13.9707C212.185 14.9369 212.97 15.7202 213.939 15.7202C214.908 15.7202 215.693 14.9369 215.693 13.9707C215.693 13.0045 214.908 12.2212 213.939 12.2212C212.97 12.2212 212.185 13.0045 212.185 13.9707Z" fill="#9871F5"/>
<path d="M199.931 13.9707C199.931 14.9369 200.716 15.7202 201.685 15.7202C202.654 15.7202 203.44 14.9369 203.44 13.9707C203.44 13.0045 202.654 12.2212 201.685 12.2212C200.716 12.2212 199.931 13.0045 199.931 13.9707Z" fill="#9871F5"/>
<path d="M187.686 13.9707C187.686 14.9369 188.472 15.7202 189.441 15.7202C190.409 15.7202 191.195 14.9369 191.195 13.9707C191.195 13.0045 190.409 12.2212 189.441 12.2212C188.472 12.2212 187.686 13.0045 187.686 13.9707Z" fill="#9871F5"/>
<path d="M175.432 13.9707C175.432 14.9369 176.218 15.7202 177.187 15.7202C178.156 15.7202 178.941 14.9369 178.941 13.9707C178.941 13.0045 178.156 12.2212 177.187 12.2212C176.218 12.2212 175.432 13.0045 175.432 13.9707Z" fill="#9871F5"/>
<path d="M163.188 13.9707C163.188 14.9369 163.973 15.7202 164.942 15.7202C165.911 15.7202 166.697 14.9369 166.697 13.9707C166.697 13.0045 165.911 12.2212 164.942 12.2212C163.973 12.2212 163.188 13.0045 163.188 13.9707Z" fill="#9871F5"/>
<path d="M150.934 13.9707C150.934 14.9369 151.72 15.7202 152.688 15.7202C153.657 15.7202 154.443 14.9369 154.443 13.9707C154.443 13.0045 153.657 12.2212 152.688 12.2212C151.72 12.2212 150.934 13.0045 150.934 13.9707Z" fill="#9871F5"/>
<path d="M138.689 13.9707C138.689 14.9369 139.475 15.7202 140.444 15.7202C141.412 15.7202 142.198 14.9369 142.198 13.9707C142.198 13.0045 141.412 12.2212 140.444 12.2212C139.475 12.2212 138.689 13.0045 138.689 13.9707Z" fill="#9871F5"/>
<path d="M212.184 1.75C212.184 2.71623 212.969 3.49951 213.938 3.49951C214.907 3.49951 215.693 2.71623 215.693 1.75C215.693 0.783774 214.907 0.000488247 213.938 0.000488205C212.969 0.000488162 212.184 0.783774 212.184 1.75Z" fill="#9871F5"/>
<path d="M199.931 1.74951C199.931 2.71574 200.716 3.49903 201.685 3.49903C202.654 3.49903 203.44 2.71574 203.44 1.74951C203.44 0.783286 202.654 -3.43312e-08 201.685 -7.66806e-08C200.716 -1.1903e-07 199.931 0.783286 199.931 1.74951Z" fill="#9871F5"/>
<path d="M187.686 1.74951C187.686 2.71574 188.472 3.49903 189.441 3.49903C190.409 3.49903 191.195 2.71574 191.195 1.74951C191.195 0.783286 190.409 -3.43315e-08 189.441 -7.66813e-08C188.472 -1.19031e-07 187.686 0.783286 187.686 1.74951Z" fill="#9871F5"/>
<path d="M175.432 1.74951C175.432 2.71574 176.218 3.49903 177.187 3.49903C178.156 3.49903 178.941 2.71574 178.941 1.74951C178.941 0.783286 178.156 -3.43312e-08 177.187 -7.66806e-08C176.218 -1.1903e-07 175.432 0.783286 175.432 1.74951Z" fill="#9871F5"/>
<path d="M163.188 1.74951C163.188 2.71574 163.973 3.49903 164.942 3.49903C165.911 3.49903 166.697 2.71574 166.697 1.74951C166.697 0.783286 165.911 -3.43315e-08 164.942 -7.66813e-08C163.973 -1.19031e-07 163.188 0.783286 163.188 1.74951Z" fill="#9871F5"/>
<path d="M150.934 1.74951C150.934 2.71574 151.72 3.49903 152.688 3.49903C153.657 3.49903 154.443 2.71574 154.443 1.74951C154.443 0.783286 153.657 -3.43315e-08 152.688 -7.66813e-08C151.72 -1.19031e-07 150.934 0.783286 150.934 1.74951Z" fill="#9871F5"/>
<path d="M138.689 1.74951C138.689 2.71574 139.475 3.49903 140.444 3.49903C141.412 3.49903 142.198 2.71574 142.198 1.74951C142.198 0.783286 141.412 -3.43315e-08 140.444 -7.66813e-08C139.475 -1.19031e-07 138.689 0.783286 138.689 1.74951Z" fill="#9871F5"/>
</svg>
